<svg width="183" height="42" viewBox="0 0 183 42" fill="none" xmlns="http://www.w3.org/2000/svg">
<path d="M84.0319 0.0151367C84.0319 0.0151367 85.9645 8.41818 95.5365 8.41818H101.152C95.2778 8.41818 90.3624 5.16048 89.2516 0.0151367H84.0319Z" fill="#FAAF56"/>
<path d="M103.269 26.2747L114.225 40.9801C114.545 41.4063 114.241 42 113.708 42H104.653C103.938 42 103.269 41.6651 102.842 41.0866L86.3464 18.9525C86.0269 18.5263 86.3312 17.9326 86.8638 17.9326H100.271C103.162 17.9326 106.053 15.9536 106.053 13.183C106.053 10.4277 104.045 8.40304 101.153 8.40304C96.9532 8.40304 91.6118 4.62776 90.8357 0H101.184C108.793 0 114.971 5.90649 114.971 13.1983C114.986 20.7184 109.599 26.2747 103.269 26.2747Z" fill="#334FAB"/>
<path d="M25.7332 14.416C24.8354 12.7719 23.6636 11.4628 22.2179 10.5342C20.757 9.59033 19.1287 8.95097 17.3026 8.58562C15.4765 8.22027 13.6199 8.0376 11.7025 8.0376C10.272 8.0376 4.09358 8.0376 1.33916 8.0376C0.593492 8.0376 0 8.64651 0 9.37721V40.5994C0 41.3453 0.60871 41.939 1.33916 41.939H8.93282C9.67849 41.939 10.272 41.3301 10.272 40.5994V33.4599C10.3937 33.5055 10.7133 33.5512 11.2003 33.5816C11.7025 33.6273 12.3112 33.6425 13.0112 33.6425C14.746 33.6425 16.4656 33.4294 18.1396 32.9879C19.8287 32.5465 21.3201 31.831 22.6592 30.8263C23.9832 29.8216 25.0484 28.4972 25.855 26.8683C26.6615 25.2395 27.0724 23.2301 27.0724 20.8401C27.0724 18.2217 26.6311 16.0753 25.7332 14.416ZM15.4156 24.5849C14.4721 25.3156 13.2851 25.6809 11.8394 25.6809C11.6264 25.6809 11.3677 25.6657 11.0633 25.6505C10.7437 25.6353 10.485 25.6048 10.2872 25.5592V16.2123C10.6068 16.1666 10.9416 16.1514 11.2459 16.1514H11.9612C13.3308 16.1514 14.4873 16.5624 15.4156 17.3692C16.3439 18.1913 16.8156 19.3482 16.8156 20.8553C16.8156 22.6059 16.3439 23.8542 15.4156 24.5849Z" fill="#334FAB"/>
<path d="M44.9377 20.0791C44.892 19.3179 44.6942 18.6938 44.3137 18.1762C43.9333 17.6739 43.4615 17.2781 42.8833 17.004C42.305 16.73 41.6658 16.5474 40.9506 16.4408C40.2506 16.3342 39.5201 16.2886 38.7745 16.2886C37.7853 16.2886 36.6136 16.4104 35.2896 16.6387C34.3765 16.7909 33.4635 17.0193 32.5048 17.3085C31.7743 17.5216 31.0134 17.0954 30.8156 16.3495L29.4916 11.0671C29.3242 10.3516 29.7351 9.63616 30.4351 9.42304C32.0026 8.95113 33.57 8.57056 35.1374 8.29655C37.1005 7.96164 38.881 7.79419 40.4636 7.79419C42.6246 7.79419 44.5724 8.05298 46.3073 8.58578C48.0421 9.11858 49.5334 9.9254 50.7508 11.0214C51.9683 12.1175 52.9118 13.518 53.5814 15.223C54.2509 16.9279 54.5705 18.9678 54.5705 21.7384V40.5995C54.5705 41.3455 53.9618 41.9392 53.2313 41.9392H46.2768C45.5312 41.9392 44.9377 41.3302 44.9377 40.5995C40.5854 42.3654 36.5222 42.4567 33.2809 40.8279C30.5112 39.4426 28.8982 37.3571 28.1677 35.8957C27.4372 34.4343 27.072 32.6532 27.072 30.5524C27.072 28.4821 27.5133 26.7772 28.3807 25.4375C29.2482 24.0827 30.3743 23.0171 31.7439 22.2103C33.1135 21.4035 34.62 20.8554 36.294 20.5358C37.9527 20.2161 39.5658 20.0639 41.1484 20.0639H44.9377V20.0791ZM44.9377 26.7772H41.3919C39.9462 26.7772 38.7136 27.0968 37.7245 27.721C36.7353 28.3603 36.2331 29.2433 36.2331 30.3698C36.2331 31.207 36.4157 31.8768 36.7962 32.364C37.1766 32.8511 37.6331 33.2164 38.1962 33.4752C38.7593 33.734 39.3528 33.9015 40.0071 33.9776C40.6463 34.0689 41.2398 34.0994 41.7876 34.0994C43.6746 34.0994 44.9681 32.9424 44.9681 32.9424V26.7772H44.9377Z" fill="#334FAB"/>
<path d="M147.065 9.66676V40.5997C147.065 41.3456 146.456 41.9393 145.726 41.9393H137.736C136.991 41.9393 136.397 41.3304 136.397 40.5997V40.5845C131.771 42.5787 127.556 41.8632 124.877 40.7215C122.306 39.6254 120.343 37.3572 119.445 35.4087C118.562 33.4449 118.121 30.8266 118.121 27.5385V9.66676C118.121 8.92084 118.729 8.32715 119.46 8.32715H127.449C128.195 8.32715 128.788 8.93606 128.788 9.66676V26.6555C128.788 29.1825 129.184 30.9484 130.051 31.8465C130.949 32.7751 132.958 33.0339 134.099 32.7599C135.241 32.4859 136.382 31.603 136.382 31.603V9.66676C136.382 8.92084 136.991 8.32715 137.721 8.32715H145.711C146.456 8.32715 147.065 8.93606 147.065 9.66676Z" fill="#334FAB"/>
<path d="M176.267 14.4162C175.369 12.7721 174.213 11.4629 172.752 10.5343C171.306 9.59049 169.662 8.95113 167.836 8.58578C166.01 8.23565 164.138 8.05298 162.236 8.05298H151.888C151.142 8.05298 150.549 8.6619 150.549 9.39259V40.6148C150.549 41.3607 151.158 41.9544 151.888 41.9544H159.467C160.212 41.9544 160.806 41.3455 160.806 40.6148V33.4752C160.927 33.5209 161.247 33.5666 161.749 33.597C162.236 33.6427 162.845 33.6579 163.545 33.6579C165.295 33.6579 166.999 33.4448 168.689 33.0033C170.362 32.5619 171.869 31.8464 173.193 30.8417C174.517 29.837 175.582 28.5126 176.404 26.8837C177.21 25.2549 177.621 23.2454 177.621 20.8554C177.606 18.2219 177.165 16.0755 176.267 14.4162ZM165.934 24.5851C165.006 25.3158 163.804 25.6811 162.358 25.6811C162.16 25.6811 161.886 25.6659 161.582 25.6507C161.262 25.6354 161.019 25.605 160.806 25.5593V16.2125C161.141 16.1668 161.46 16.1516 161.764 16.1516H162.48C163.849 16.1516 165.006 16.5626 165.934 17.3694C166.878 18.1914 167.334 19.3484 167.334 20.8554C167.334 22.6061 166.878 23.8544 165.934 24.5851Z" fill="#334FAB"/>
<path d="M85.8585 9.48409L74.6735 29.9285V40.5997C74.6735 41.3456 74.0648 41.9393 73.3343 41.9393H66.0602C65.3146 41.9393 64.7211 41.3304 64.7211 40.5997V29.9285L53.5512 9.48409C53.2621 8.96651 53.6425 8.32715 54.236 8.32715H63.0015C63.4732 8.32715 63.9145 8.58594 64.1428 8.99696L69.7125 19.1963L75.2822 8.99696C75.5105 8.58594 75.9518 8.32715 76.4235 8.32715H85.189C85.7672 8.32715 86.1477 8.96651 85.8585 9.48409Z" fill="#334FAB"/>
<path d="M179.467 10.9355C177.551 10.9355 176 9.38417 176 7.46777C176 5.55137 177.551 4 179.467 4C181.382 4 182.933 5.55137 182.933 7.46777C182.933 9.38417 181.382 10.9355 179.467 10.9355ZM179.467 4.71181C177.952 4.71181 176.712 5.9529 176.712 7.46777C176.712 8.98264 177.952 10.2237 179.467 10.2237C180.981 10.2237 182.222 8.98264 182.222 7.46777C182.222 5.9529 180.981 4.71181 179.467 4.71181Z" fill="#334FAB"/>
<path d="M179.175 7.28519C179.357 7.28519 179.485 7.24869 179.558 7.17568C179.631 7.10268 179.686 6.99317 179.686 6.84716C179.686 6.70115 179.649 6.59164 179.558 6.51863C179.485 6.44563 179.339 6.42737 179.175 6.42737H178.81V7.30344H179.175V7.28519ZM178.81 7.88749V9.16509H177.934V5.78857H179.266C179.722 5.78857 180.032 5.86158 180.251 6.00759C180.47 6.1536 180.562 6.39087 180.562 6.7194C180.562 6.93841 180.507 7.12093 180.397 7.26694C180.288 7.41295 180.124 7.52246 179.905 7.57722C180.032 7.61372 180.124 7.66847 180.233 7.75973C180.343 7.85099 180.416 7.997 180.525 8.19776L180.999 9.16509H180.069L179.649 8.32553C179.558 8.16126 179.485 8.0335 179.394 7.97875C179.321 7.92399 179.193 7.88749 179.065 7.88749H178.81Z" fill="#334FAB"/>
</svg>
